<mxfile host="app.diagrams.net" modified="2022-02-18T04:23:46.437Z" agent="5.0 (X11)" etag="6mWxcodwyk-Vw7aEb6vT" version="16.0.3" type="github">
  <diagram id="8b5KCraT1ZwaYD389lhZ" name="Page-1">
    <mxGraphModel dx="1140" dy="642" grid="1" gridSize="10" guides="1" tooltips="1" connect="1" arrows="1" fold="1" page="1" pageScale="1" pageWidth="850" pageHeight="1100" math="0" shadow="0">
      <root>
        <mxCell id="0" />
        <mxCell id="1" parent="0" />
        <mxCell id="BpOh6ZRRtwigO1atqfg6-8" value="" style="edgeStyle=orthogonalEdgeStyle;rounded=0;orthogonalLoop=1;jettySize=auto;html=1;fontSize=48;" edge="1" parent="1" target="BpOh6ZRRtwigO1atqfg6-5">
          <mxGeometry relative="1" as="geometry">
            <mxPoint x="390" y="400" as="sourcePoint" />
            <Array as="points">
              <mxPoint x="390" y="470" />
              <mxPoint x="263" y="470" />
            </Array>
          </mxGeometry>
        </mxCell>
        <mxCell id="BpOh6ZRRtwigO1atqfg6-1" value="&lt;font style=&quot;font-size: 48px&quot;&gt;R&lt;/font&gt;" style="text;html=1;strokeColor=none;fillColor=none;align=center;verticalAlign=middle;whiteSpace=wrap;rounded=0;sketch=0;" vertex="1" parent="1">
          <mxGeometry x="370" y="340" width="40" height="50" as="geometry" />
        </mxCell>
        <mxCell id="BpOh6ZRRtwigO1atqfg6-2" value="&lt;font style=&quot;font-size: 48px&quot;&gt;7&lt;/font&gt;" style="text;html=1;strokeColor=none;fillColor=none;align=center;verticalAlign=middle;whiteSpace=wrap;rounded=0;" vertex="1" parent="1">
          <mxGeometry x="410" y="340" width="40" height="50" as="geometry" />
        </mxCell>
        <mxCell id="BpOh6ZRRtwigO1atqfg6-3" value="&lt;font style=&quot;font-size: 48px&quot;&gt;5&lt;/font&gt;" style="text;html=1;strokeColor=none;fillColor=none;align=center;verticalAlign=middle;whiteSpace=wrap;rounded=0;" vertex="1" parent="1">
          <mxGeometry x="450" y="340" width="40" height="50" as="geometry" />
        </mxCell>
        <mxCell id="BpOh6ZRRtwigO1atqfg6-4" value="&lt;font style=&quot;font-size: 48px&quot;&gt;0&lt;/font&gt;" style="text;html=1;strokeColor=none;fillColor=none;align=center;verticalAlign=middle;whiteSpace=wrap;rounded=0;" vertex="1" parent="1">
          <mxGeometry x="490" y="340" width="40" height="50" as="geometry" />
        </mxCell>
        <mxCell id="BpOh6ZRRtwigO1atqfg6-5" value="&lt;div style=&quot;font-size: 16px&quot; align=&quot;left&quot;&gt;&lt;font style=&quot;font-size: 16px&quot;&gt;R: Rack&lt;br&gt;&lt;/font&gt;&lt;/div&gt;&lt;div style=&quot;font-size: 16px&quot; align=&quot;left&quot;&gt;&lt;font style=&quot;font-size: 16px&quot;&gt;T: Tower&lt;br&gt;&lt;/font&gt;&lt;/div&gt;&lt;div style=&quot;font-size: 16px&quot; align=&quot;left&quot;&gt;&lt;font style=&quot;font-size: 16px&quot;&gt;M: Modular&lt;/font&gt;&lt;/div&gt;" style="text;html=1;strokeColor=none;fillColor=none;align=left;verticalAlign=middle;whiteSpace=wrap;rounded=0;" vertex="1" parent="1">
          <mxGeometry x="210" y="520" width="105" height="60" as="geometry" />
        </mxCell>
        <mxCell id="BpOh6ZRRtwigO1atqfg6-7" value="" style="endArrow=none;html=1;rounded=0;fontSize=48;" edge="1" parent="1">
          <mxGeometry width="50" height="50" relative="1" as="geometry">
            <mxPoint x="378.75" y="400" as="sourcePoint" />
            <mxPoint x="401.25" y="400" as="targetPoint" />
          </mxGeometry>
        </mxCell>
        <mxCell id="BpOh6ZRRtwigO1atqfg6-9" value="" style="endArrow=none;html=1;rounded=0;fontSize=48;" edge="1" parent="1">
          <mxGeometry width="50" height="50" relative="1" as="geometry">
            <mxPoint x="418.75" y="400" as="sourcePoint" />
            <mxPoint x="441.25" y="400" as="targetPoint" />
          </mxGeometry>
        </mxCell>
        <mxCell id="BpOh6ZRRtwigO1atqfg6-10" value="" style="endArrow=none;html=1;rounded=0;fontSize=48;" edge="1" parent="1">
          <mxGeometry width="50" height="50" relative="1" as="geometry">
            <mxPoint x="458.75" y="400" as="sourcePoint" />
            <mxPoint x="481.25" y="400" as="targetPoint" />
          </mxGeometry>
        </mxCell>
        <mxCell id="BpOh6ZRRtwigO1atqfg6-11" value="" style="endArrow=none;html=1;rounded=0;fontSize=48;" edge="1" parent="1">
          <mxGeometry width="50" height="50" relative="1" as="geometry">
            <mxPoint x="498.75" y="400" as="sourcePoint" />
            <mxPoint x="521.25" y="400" as="targetPoint" />
          </mxGeometry>
        </mxCell>
        <mxCell id="BpOh6ZRRtwigO1atqfg6-12" value="&lt;div style=&quot;font-size: 16px&quot; align=&quot;left&quot;&gt;&lt;font style=&quot;font-size: 16px&quot;&gt;1-2: 入门单路&lt;br&gt;&lt;/font&gt;&lt;/div&gt;&lt;div style=&quot;font-size: 16px&quot; align=&quot;left&quot;&gt;&lt;font style=&quot;font-size: 16px&quot;&gt;3-5: 中高端单路 / 入门双路&lt;br&gt;&lt;/font&gt;&lt;/div&gt;&lt;div style=&quot;font-size: 16px&quot; align=&quot;left&quot;&gt;&lt;font style=&quot;font-size: 16px&quot;&gt;6-8: 主流双路 / 入门4路&lt;br&gt;&lt;/font&gt;&lt;/div&gt;&lt;div style=&quot;font-size: 16px&quot; align=&quot;left&quot;&gt;&lt;font style=&quot;font-size: 16px&quot;&gt;9: 高端4路&lt;br&gt;&lt;/font&gt;&lt;/div&gt;" style="text;html=1;strokeColor=none;fillColor=none;align=left;verticalAlign=middle;whiteSpace=wrap;rounded=0;" vertex="1" parent="1">
          <mxGeometry x="330" y="520" width="200" height="80" as="geometry" />
        </mxCell>
        <mxCell id="BpOh6ZRRtwigO1atqfg6-13" value="" style="edgeStyle=orthogonalEdgeStyle;rounded=0;orthogonalLoop=1;jettySize=auto;html=1;fontSize=48;entryX=0.5;entryY=0;entryDx=0;entryDy=0;" edge="1" parent="1" target="BpOh6ZRRtwigO1atqfg6-12">
          <mxGeometry relative="1" as="geometry">
            <mxPoint x="430" y="400" as="sourcePoint" />
            <mxPoint x="333.02857142857147" y="510" as="targetPoint" />
            <Array as="points">
              <mxPoint x="430" y="520" />
            </Array>
          </mxGeometry>
        </mxCell>
        <mxCell id="BpOh6ZRRtwigO1atqfg6-14" value="&lt;div style=&quot;font-size: 16px&quot; align=&quot;left&quot;&gt;&lt;font style=&quot;font-size: 16px&quot;&gt;产品代数&lt;br&gt;&lt;/font&gt;&lt;/div&gt;" style="text;html=1;strokeColor=none;fillColor=none;align=left;verticalAlign=middle;whiteSpace=wrap;rounded=0;" vertex="1" parent="1">
          <mxGeometry x="540" y="520" width="70" height="20" as="geometry" />
        </mxCell>
        <mxCell id="BpOh6ZRRtwigO1atqfg6-15" value="" style="edgeStyle=orthogonalEdgeStyle;rounded=0;orthogonalLoop=1;jettySize=auto;html=1;fontSize=48;entryX=0.5;entryY=0;entryDx=0;entryDy=0;" edge="1" parent="1" target="BpOh6ZRRtwigO1atqfg6-14">
          <mxGeometry relative="1" as="geometry">
            <mxPoint x="470" y="400" as="sourcePoint" />
            <mxPoint x="440" y="530" as="targetPoint" />
            <Array as="points">
              <mxPoint x="470" y="470" />
              <mxPoint x="575" y="470" />
            </Array>
          </mxGeometry>
        </mxCell>
        <mxCell id="BpOh6ZRRtwigO1atqfg6-16" value="&lt;div style=&quot;font-size: 16px&quot; align=&quot;left&quot;&gt;&lt;font style=&quot;font-size: 16px&quot;&gt;0: Intel CPU&lt;br&gt;&lt;/font&gt;&lt;/div&gt;&lt;div style=&quot;font-size: 16px&quot; align=&quot;left&quot;&gt;&lt;font style=&quot;font-size: 16px&quot;&gt;1: AMD CPU&lt;br&gt;&lt;/font&gt;&lt;/div&gt;" style="text;html=1;strokeColor=none;fillColor=none;align=left;verticalAlign=middle;whiteSpace=wrap;rounded=0;" vertex="1" parent="1">
          <mxGeometry x="630" y="520" width="100" height="40" as="geometry" />
        </mxCell>
        <mxCell id="BpOh6ZRRtwigO1atqfg6-17" value="" style="edgeStyle=orthogonalEdgeStyle;rounded=0;orthogonalLoop=1;jettySize=auto;html=1;fontSize=48;entryX=0.5;entryY=0;entryDx=0;entryDy=0;" edge="1" parent="1" target="BpOh6ZRRtwigO1atqfg6-16">
          <mxGeometry relative="1" as="geometry">
            <mxPoint x="510" y="400" as="sourcePoint" />
            <mxPoint x="695" y="425" as="targetPoint" />
            <Array as="points">
              <mxPoint x="510" y="440" />
              <mxPoint x="680" y="440" />
            </Array>
          </mxGeometry>
        </mxCell>
      </root>
    </mxGraphModel>
  </diagram>
</mxfile>
